<?xml version="1.0" encoding="UTF-8"?>
<!DOCTYPE svg PUBLIC "-//W3C//DTD SVG 1.1//EN" "http://www.w3.org/Graphics/SVG/1.1/DTD/svg11.dtd">
<!-- Creator: CorelDRAW X7 -->
<svg xmlns="http://www.w3.org/2000/svg" xml:space="preserve" width="534.084mm" height="527.26mm" version="1.1" style="shape-rendering:geometricPrecision; text-rendering:geometricPrecision; image-rendering:optimizeQuality; fill-rule:evenodd; clip-rule:evenodd"
viewBox="0 0 51356 50699"
 xmlns:xlink="http://www.w3.org/1999/xlink">
 <defs>
  <style type="text/css">
   <![CDATA[
    .str0 {stroke:#373435;stroke-width:19.2313}
    .fil0 {fill:none}
    .fil1 {fill:#ED3237}
    .fil2 {fill:#FFF212}
   ]]>
  </style>
 </defs>
 <g id="Layer_x0020_1">
  <metadata id="CorelCorpID_0Corel-Layer"/>
  <g id="_2577991958976">
   <g>
    <rect class="fil0 str0" x="17464" y="10" width="16342" height="16342"/>
    <path class="fil1" d="M25676 992c3983,0 7212,3229 7212,7212 0,3982 -3229,7212 -7212,7212 -3983,0 -7212,-3230 -7212,-7212 0,-3983 3229,-7212 7212,-7212zm0 1442c3186,0 5769,2584 5769,5770 0,3186 -2583,5769 -5769,5769 -3186,0 -5770,-2583 -5770,-5769 0,-3186 2584,-5770 5770,-5770z"/>
   </g>
   <g>
    <polygon class="fil2" points="1410,13853 7082,8181 1410,2508 2509,1411 8180,7083 13853,1411 14951,2508 9277,8181 14951,13853 13853,14950 8180,9278 2509,14950 "/>
    <rect class="fil0 str0" x="10" y="10" width="16342" height="16342"/>
   </g>
   <g>
    <polygon class="fil2" points="36404,13853 42077,8181 36404,2508 37503,1411 43175,7083 48847,1411 49946,2508 44272,8181 49946,13853 48847,14950 43175,9278 37503,14950 "/>
    <rect class="fil0 str0" x="35004" y="10" width="16342" height="16342"/>
   </g>
   <g>
    <rect class="fil0 str0" x="34963" y="17036" width="16342" height="16342"/>
    <path class="fil1" d="M43174 18019c3983,0 7212,3229 7212,7211 0,3983 -3229,7213 -7212,7213 -3983,0 -7211,-3230 -7211,-7213 0,-3982 3228,-7211 7211,-7211zm0 1442c3186,0 5770,2583 5770,5769 0,3187 -2584,5770 -5770,5770 -3186,0 -5769,-2583 -5769,-5770 0,-3186 2583,-5769 5769,-5769z"/>
   </g>
   <g>
    <polygon class="fil2" points="18849,30853 24522,25180 18849,19507 19948,18410 25620,24082 31292,18410 32391,19507 26717,25180 32391,30853 31292,31950 25620,26277 19948,31950 "/>
    <rect class="fil0 str0" x="17449" y="17009" width="16342" height="16342"/>
   </g>
   <g>
    <rect class="fil0 str0" x="17457" y="34348" width="16342" height="16342"/>
    <path class="fil1" d="M25669 35331c3983,0 7212,3228 7212,7211 0,3983 -3229,7212 -7212,7212 -3983,0 -7211,-3229 -7211,-7212 0,-3983 3228,-7211 7211,-7211zm0 1442c3186,0 5769,2583 5769,5769 0,3186 -2583,5769 -5769,5769 -3186,0 -5770,-2583 -5770,-5769 0,-3186 2584,-5769 5770,-5769z"/>
   </g>
   <g>
    <polygon class="fil2" points="1594,48178 7266,42506 1594,36833 2692,35736 8364,41408 14036,35736 15135,36833 9461,42506 15135,48178 14036,49275 8364,43603 2692,49275 "/>
    <rect class="fil0 str0" x="193" y="34334" width="16342" height="16342"/>
   </g>
   <g>
    <rect class="fil0 str0" x="159" y="16980" width="16342" height="16342"/>
    <path class="fil1" d="M8370 17963c3983,0 7212,3229 7212,7211 0,3983 -3229,7213 -7212,7213 -3982,0 -7211,-3230 -7211,-7213 0,-3982 3229,-7211 7211,-7211zm0 1442c3187,0 5770,2583 5770,5769 0,3187 -2583,5770 -5770,5770 -3186,0 -5769,-2583 -5769,-5770 0,-3186 2583,-5769 5769,-5769z"/>
   </g>
   <g>
    <rect class="fil0 str0" x="34951" y="34341" width="16342" height="16342"/>
    <path class="fil1" d="M43163 35324c3983,0 7212,3229 7212,7211 0,3983 -3229,7213 -7212,7213 -3983,0 -7211,-3230 -7211,-7213 0,-3982 3228,-7211 7211,-7211zm0 1442c3186,0 5769,2583 5769,5769 0,3187 -2583,5770 -5769,5770 -3186,0 -5769,-2583 -5769,-5770 0,-3186 2583,-5769 5769,-5769z"/>
   </g>
  </g>
 </g>
</svg>
